<?xml version="1.0" standalone="no"?>
<!DOCTYPE svg PUBLIC "-//W3C//DTD SVG 20010904//EN"
 "http://www.w3.org/TR/2001/REC-SVG-20010904/DTD/svg10.dtd">
<svg version="1.0" xmlns="http://www.w3.org/2000/svg"
 width="2622.000000pt" height="2622.000000pt" viewBox="0 0 2622.000000 2622.000000"
 preserveAspectRatio="xMidYMid meet">
<metadata>
Created by potrace 1.11, written by Peter Selinger 2001-2013
</metadata>
<g transform="translate(0.000000,2622.000000) scale(0.100000,-0.100000)"
fill="#000000" stroke="none">
<path d="M9738 19895 c-2 -2 -70 -6 -153 -9 -161 -7 -237 -12 -355 -22 -41 -3
-93 -7 -115 -9 -111 -8 -268 -23 -315 -30 -14 -2 -50 -6 -80 -10 -73 -8 -209
-25 -240 -30 -14 -3 -43 -7 -65 -10 -22 -3 -51 -8 -65 -10 -14 -3 -41 -7 -60
-10 -19 -3 -46 -7 -60 -10 -14 -3 -41 -7 -60 -10 -19 -3 -103 -19 -186 -35
-82 -17 -159 -32 -170 -34 -10 -2 -37 -9 -59 -14 -22 -6 -51 -13 -65 -16 -151
-31 -554 -152 -690 -206 -334 -133 -598 -277 -765 -416 -33 -28 -82 -65 -110
-84 -64 -44 -187 -153 -269 -238 -226 -234 -370 -505 -426 -801 -13 -65 -21
-149 -21 -216 0 -60 1 -583 3 -1162 l3 -1052 -60 -16 c-282 -79 -1057 -326
-1195 -382 -8 -4 -17 -7 -20 -8 -3 -1 -12 -5 -20 -8 -21 -9 -283 -107 -295
-111 -14 -4 -25 -9 -230 -92 -166 -67 -326 -135 -400 -169 -794 -363 -1341
-682 -1850 -1079 -337 -263 -676 -607 -861 -871 -11 -17 -36 -52 -55 -80 -126
-180 -228 -381 -318 -625 -30 -82 -78 -291 -94 -410 -14 -104 -16 -393 -3
-475 22 -138 29 -175 56 -279 17 -63 34 -126 40 -138 5 -13 26 -66 46 -118
117 -296 335 -633 588 -909 115 -124 350 -350 432 -413 16 -12 38 -31 49 -41
37 -35 229 -182 345 -265 63 -45 120 -85 125 -89 9 -7 95 -62 260 -168 135
-86 304 -184 540 -312 82 -44 542 -273 549 -273 3 0 33 -13 68 -29 172 -79
300 -136 368 -162 41 -16 84 -34 95 -39 46 -22 258 -105 399 -156 243 -89 260
-96 281 -105 11 -4 137 -47 280 -94 224 -74 361 -117 725 -226 62 -19 112 -33
280 -78 41 -11 109 -29 150 -41 120 -33 675 -169 795 -195 61 -13 155 -33 209
-45 55 -12 102 -23 105 -25 3 -1 23 -6 44 -9 22 -3 69 -13 105 -21 59 -12 241
-48 312 -61 14 -3 68 -14 120 -24 78 -16 247 -45 435 -76 17 -3 37 -7 45 -9 8
-2 33 -6 55 -10 22 -3 65 -10 95 -15 30 -6 66 -12 80 -15 34 -6 237 -35 280
-41 19 -2 46 -6 60 -9 14 -3 43 -7 65 -10 22 -3 54 -7 70 -10 17 -3 47 -7 68
-10 20 -3 54 -7 75 -10 20 -3 55 -8 77 -10 22 -3 56 -7 75 -10 19 -2 53 -7 75
-10 22 -2 108 -13 190 -24 83 -11 182 -23 220 -26 39 -3 77 -8 85 -10 8 -2 48
-7 88 -10 41 -4 81 -8 90 -10 9 -1 53 -6 96 -10 43 -4 86 -8 95 -10 15 -2 142
-15 206 -20 17 -2 66 -5 110 -9 44 -4 96 -9 115 -11 19 -3 71 -7 115 -10 44
-3 98 -7 120 -10 43 -5 137 -12 280 -20 50 -3 117 -8 150 -10 57 -5 116 -9
285 -20 69 -4 119 -6 426 -20 525 -24 813 -29 1519 -29 689 0 1160 9 1473 28
48 3 146 8 217 11 158 7 278 14 365 20 36 2 103 7 150 10 129 8 344 23 420 30
25 2 81 7 125 10 44 3 91 8 105 10 14 2 63 6 110 10 112 8 164 12 230 19 217
23 351 38 385 41 22 3 61 7 88 10 102 11 192 21 257 30 19 2 87 11 150 19 63
8 139 18 169 21 30 4 61 8 70 10 9 1 39 6 66 9 107 14 131 17 145 21 8 2 39 7
69 10 30 4 61 8 70 10 25 4 92 14 141 20 25 3 52 8 60 10 8 2 35 6 60 9 25 3
56 8 70 11 14 3 43 8 65 10 22 3 63 10 90 15 41 8 206 36 440 76 17 2 37 7 45
9 8 2 29 7 45 10 17 2 39 7 50 9 11 2 58 11 105 20 47 9 96 18 110 21 14 3 50
10 80 15 30 6 66 12 80 15 14 4 36 8 50 11 21 4 121 26 180 39 22 5 202 44
301 65 47 11 133 31 190 45 57 15 111 28 119 30 32 6 277 66 314 76 22 6 46
12 55 14 9 2 99 27 201 55 102 29 203 56 225 61 22 6 92 26 155 45 63 19 187
57 275 84 209 63 605 195 775 258 74 27 164 60 200 73 36 12 69 26 75 31 5 4
15 8 23 8 8 0 28 6 45 14 18 8 84 36 147 61 63 26 128 53 144 61 16 8 33 14
37 14 9 0 211 88 352 154 43 20 80 36 83 36 7 0 483 237 554 276 36 20 90 49
120 65 30 17 62 34 70 39 8 5 48 28 89 52 41 24 93 54 116 68 22 14 85 51 138
83 198 119 525 352 721 515 477 396 810 796 1014 1223 119 248 182 463 211
724 8 69 6 381 -2 420 -2 11 -7 41 -11 66 -12 80 -16 102 -37 184 -12 44 -22
87 -24 95 -2 8 -18 56 -35 105 -111 311 -296 620 -548 914 -112 130 -395 408
-522 511 -30 25 -64 53 -75 63 -11 11 -92 73 -180 139 -238 179 -594 411 -855
555 -190 105 -288 157 -470 247 -179 89 -257 125 -520 243 -78 35 -314 132
-455 188 -66 25 -129 51 -140 55 -26 12 -255 95 -410 150 -225 80 -754 250
-870 280 -16 4 -37 10 -45 13 -8 3 -47 15 -85 26 l-70 20 -1 1063 c0 585 -3
1104 -7 1153 -6 76 -14 124 -42 245 -30 134 -158 396 -252 515 -13 17 -27 35
-31 40 -54 76 -194 218 -307 310 -38 31 -112 98 -165 147 -128 121 -306 244
-495 341 -75 39 -243 117 -251 117 -3 0 -24 8 -47 19 -38 17 -159 61 -262 96
-22 8 -74 24 -115 36 -41 12 -95 28 -119 36 -45 14 -395 101 -441 109 -14 2
-36 7 -50 9 -49 10 -75 15 -100 20 -14 3 -36 7 -50 10 -51 10 -146 28 -160 30
-46 6 -128 18 -145 21 -49 10 -179 29 -265 39 -25 3 -63 7 -85 10 -22 3 -67 8
-100 11 -33 3 -62 8 -65 9 -3 2 -51 7 -105 10 -55 4 -118 9 -140 11 -100 10
-263 21 -470 31 -296 15 -1103 8 -1350 -12 -22 -2 -85 -6 -140 -10 -55 -4
-112 -8 -127 -10 -15 -2 -66 -6 -114 -10 -49 -3 -90 -8 -93 -9 -3 -2 -42 -7
-85 -11 -43 -4 -86 -8 -95 -10 -9 -1 -45 -6 -81 -10 -36 -3 -76 -8 -90 -10
-14 -2 -45 -7 -70 -10 -25 -3 -52 -8 -60 -10 -8 -3 -35 -7 -60 -10 -25 -3 -70
-9 -100 -15 -30 -5 -68 -11 -85 -14 -24 -4 -194 -37 -310 -60 -84 -17 -348
-84 -478 -121 l-158 -45 -142 41 c-78 23 -167 48 -197 55 -30 7 -93 22 -140
34 -93 22 -302 66 -365 76 -22 3 -43 8 -46 10 -6 3 -10 4 -169 29 -58 8 -145
22 -195 30 -49 8 -119 17 -155 20 -36 3 -76 8 -90 10 -26 5 -72 10 -155 19
-101 11 -152 16 -230 22 -44 3 -96 7 -115 9 -19 2 -91 6 -160 10 -69 4 -150 9
-180 11 -58 5 -1007 13 -1012 9z"/>
</g>
</svg>
