<?xml version="1.0" encoding="UTF-8" standalone="no"?>
<!-- Created with Inkscape (http://www.inkscape.org/) -->

<svg
   xmlns:dc="http://purl.org/dc/elements/1.1/"
   xmlns:cc="http://creativecommons.org/ns#"
   xmlns:rdf="http://www.w3.org/1999/02/22-rdf-syntax-ns#"
   xmlns:svg="http://www.w3.org/2000/svg"
   xmlns="http://www.w3.org/2000/svg"
   xmlns:sodipodi="http://sodipodi.sourceforge.net/DTD/sodipodi-0.dtd"
   xmlns:inkscape="http://www.inkscape.org/namespaces/inkscape"
   width="739.91656mm"
   height="383.63962mm"
   viewBox="0 0 739.91656 383.63962"
   version="1.1"
   id="svg8"
   sodipodi:docname="button_transparent_50.svg"
   inkscape:version="0.92.2 (5c3e80d, 2017-08-06)">
  <defs
     id="defs2" />
  <sodipodi:namedview
     id="base"
     pagecolor="#ffffff"
     bordercolor="#666666"
     borderopacity="1.0"
     inkscape:pageopacity="0.0"
     inkscape:pageshadow="2"
     inkscape:zoom="0.16"
     inkscape:cx="304.45396"
     inkscape:cy="-480.19299"
     inkscape:document-units="mm"
     inkscape:current-layer="layer10"
     showgrid="false"
     inkscape:window-width="1920"
     inkscape:window-height="1017"
     inkscape:window-x="-8"
     inkscape:window-y="-8"
     inkscape:window-maximized="1"
     fit-margin-top="0"
     fit-margin-left="0"
     fit-margin-right="0"
     fit-margin-bottom="0" />
  <metadata
     id="metadata5">
    <rdf:RDF>
      <cc:Work
         rdf:about="">
        <dc:format>image/svg+xml</dc:format>
        <dc:type
           rdf:resource="http://purl.org/dc/dcmitype/StillImage" />
        <dc:title></dc:title>
      </cc:Work>
    </rdf:RDF>
  </metadata>
  <g
     inkscape:groupmode="layer"
     id="layer10"
     inkscape:label="Layer 3"
     transform="translate(170.55444,563.8033)">
    <path
       style="fill:#ffffff;fill-opacity:0.50196081;stroke:none;stroke-width:111.72120667;stroke-miterlimit:4;stroke-dasharray:none;stroke-opacity:1"
       d="m 1059.5605,-2130.9023 c -115.32159,0.3928 -225.79567,15.3128 -307.998,41.6601 -82.18205,-26.3406 -192.62279,-41.2589 -307.91406,-41.6582 v 0 c -3.74831,-0.015 -7.50006,-0.015 -11.25782,0 -115.744,0.5482 -226.27281,15.7103 -308.125,42.2675 -48.524866,15.7441 -85.52335,35.6478 -110.511714,57.5586 -60.903092,42.4082 -88.765008,103.1727 -80.632812,160.6192 H -67.1875 v 213.1172 a 1398.2672,540.02901 0 0 0 -577.42773,436.3691 1398.2672,540.02901 0 0 0 1398.26757,540.02931 1398.2672,540.02901 0 0 0 1398.26756,-540.02931 1398.2672,540.02901 0 0 0 -572.2324,-434.9844 v -214.5019 h -0.4844 c 3.8412,-52.9139 -22.402,-107.615 -76.4609,-147.4278 -24.2137,-27.0843 -65.782,-51.8989 -123.8828,-70.75 -81.8522,-26.5572 -192.381,-41.7192 -308.125,-42.2675 -3.7294,-0.018 -7.4538,-0.021 -11.1739,-0.01 z"
       transform="scale(0.26458333)"
       id="path5260"
       inkscape:connector-curvature="0" />
  </g>
  <g
     inkscape:label="Layer 1"
     inkscape:groupmode="layer"
     id="layer1"
     transform="translate(170.55444,563.8033)">
    <path
       style="fill:#000000;fill-opacity:1;stroke-width:0.38766503"
       d="M -17.999804,-418.27701 A 350.00033,120.79072 0 0 0 -150.00015,-323.79069 350.00033,120.79072 0 0 0 200.00054,-203.00001 350.00033,120.79072 0 0 0 550.0007,-323.79069 350.00033,120.79072 0 0 0 418.00037,-418.138 v 36.54408 1.96421 h -0.0615 c -0.0494,0.77722 -0.12965,1.55295 -0.2403,2.32752 -0.11065,0.77454 -0.25162,1.54752 -0.42376,2.3182 -0.17213,0.77068 -0.37541,1.53919 -0.60925,2.30476 -0.23387,0.7656 -0.49848,1.52845 -0.79428,2.28772 -0.29578,0.75928 -0.62283,1.5153 -0.98081,2.26706 -0.35798,0.75174 -0.747,1.49921 -1.16737,2.24224 -0.4204,0.743 -0.87194,1.48127 -1.35496,2.21433 -0.48303,0.73305 -0.99767,1.46092 -1.54358,2.18281 -0.54592,0.72189 -1.12319,1.43767 -1.7322,2.14715 -0.60902,0.70951 -1.2495,1.41253 -1.92183,2.10841 -0.67236,0.69589 -1.37663,1.38497 -2.11254,2.06603 -0.73594,0.68107 -1.5035,1.35449 -2.30323,2.01952 -0.79973,0.66503 -1.63169,1.32162 -2.49545,1.9694 -0.86378,0.64778 -1.75966,1.28632 -2.68769,1.91564 -0.92805,0.62931 -1.88791,1.24917 -2.88047,1.8588 -0.99253,0.60963 -2.01748,1.2091 -3.07475,1.79782 -3.51185,1.95551 -7.04383,3.87123 -10.59729,5.74644 -3.55346,1.87518 -7.12841,3.70996 -10.72701,5.50455 -3.59858,1.79462 -7.22086,3.54908 -10.86806,5.26276 -3.64724,1.71365 -7.31963,3.38638 -11.01898,5.0188 -3.69936,1.63246 -7.4257,3.22454 -11.18073,4.77545 -3.75502,1.55088 -7.53859,3.06091 -11.3528,4.52993 -3.81421,1.46905 -7.65885,2.89714 -11.53574,4.28398 -3.87692,1.38687 -7.7859,2.73259 -11.72902,4.03699 -3.94311,1.30437 -7.92028,2.56733 -11.93314,3.78892 -4.01283,1.22158 -8.06149,2.40136 -12.14759,3.53983 -4.08607,1.13848 -8.20952,2.23571 -12.37238,3.29076 -4.16284,1.05506 -8.36491,2.06831 -12.60803,3.03962 -4.24311,0.97131 -8.5271,1.90066 -12.854,2.78794 -4.32691,0.88726 -8.69664,1.73234 -13.11085,2.53524 -4.4142,0.80291 -8.87298,1.56329 -13.378,2.28151 -4.50503,0.71824 -9.05667,1.39403 -13.65603,2.02729 v 0.15243 c -0.18267,-0.0247 -0.3642,-0.0507 -0.54674,-0.076 -0.18236,0.0248 -0.36319,0.0511 -0.5457,0.076 v -0.15243 c -4.59936,-0.63326 -9.15048,-1.30905 -13.65551,-2.02729 -4.50503,-0.71822 -8.96379,-1.4786 -13.37801,-2.28151 -4.41422,-0.8029 -8.78392,-1.64798 -13.11084,-2.53524 -4.32692,-0.88728 -8.61139,-1.81663 -12.85453,-2.78794 -4.24314,-0.97131 -8.44515,-1.98456 -12.60802,-3.03962 -4.16287,-1.05505 -8.28679,-2.15228 -12.37291,-3.29076 -4.08611,-1.13847 -8.13471,-2.31825 -12.14759,-3.53983 -4.01287,-1.22159 -7.98998,-2.48455 -11.933129,-3.78892 -3.943147,-1.3044 -7.852074,-2.65012 -11.729012,-4.03699 -3.876935,-1.38684 -7.721499,-2.81493 -11.535738,-4.28398 -3.814243,-1.46902 -7.598267,-2.97905 -11.353325,-4.52993 -3.755057,-1.55091 -7.481334,-3.14299 -11.180723,-4.77545 -3.699389,-1.63242 -7.371743,-3.30515 -11.018978,-5.0188 -3.647234,-1.71368 -7.269484,-3.46814 -10.86808,-5.26276 -3.598596,-1.79459 -7.173534,-3.62937 -10.727005,-5.50455 -3.55347,-1.87521 -7.085436,-3.79093 -10.5972958,-5.74644 -1.0572655,-0.5887 -2.0822173,-1.18819 -3.0747508,-1.79782 -0.9925335,-0.60963 -1.9524134,-1.22949 -2.8804471,-1.8588 -0.9280338,-0.62932 -1.82392785,-1.26786 -2.68769391,-1.91564 -0.86376609,-0.64778 -1.69572699,-1.30437 -2.49545729,-1.9694 -0.7997303,-0.66503 -1.5672942,-1.33845 -2.303221,-2.01952 -0.7359266,-0.68106 -1.4401796,-1.37014 -2.1125344,-2.06603 -0.672355,-0.69588 -1.3128333,-1.3989 -1.9218484,-2.10841 -0.6090153,-0.70948 -1.1862883,-1.42526 -1.7321953,-2.14715 -0.545908,-0.72189 -1.060545,-1.44976 -1.543577,-2.18281 -0.483032,-0.73306 -0.934569,-1.47133 -1.354958,-2.21433 -0.420387,-0.74303 -0.809395,-1.49101 -1.167371,-2.24277 -0.357977,-0.75176 -0.685023,-1.50725 -0.98082,-2.26653 -0.295797,-0.75927 -0.560418,-1.52212 -0.794267,-2.28772 -0.23385,-0.76557 -0.436616,-1.53408 -0.608749,-2.30476 -0.172134,-0.77068 -0.313614,-1.54366 -0.424264,-2.3182 -0.11065,-0.77457 -0.190898,-1.55033 -0.240296,-2.32752 h -0.06098 v -1.96421 z"
       id="path5191"
       inkscape:connector-curvature="0" />
  </g>
  <g
     inkscape:groupmode="layer"
     id="layer4"
     inkscape:label="Layer 2"
     transform="translate(170.55444,563.8033)" />
  <g
     inkscape:groupmode="layer"
     id="layer8"
     inkscape:label="Layer 5"
     transform="translate(170.55444,563.8033)">
    <path
       style="fill:#aa0088;fill-opacity:1;stroke-width:0.5360387"
       d="M 1700.459 69.666016 C 1588.1551 70.135099 1480.5708 87.952431 1400.5195 119.41602 C 1320.4881 87.960482 1212.9404 70.14487 1100.666 69.667969 C 1097.0158 69.652851 1093.3605 69.653104 1089.7012 69.675781 C 976.98594 70.330395 869.34889 88.436148 789.63867 120.15039 C 620.42526 187.47523 594.97872 318.45358 736.09961 395.34766 C 930.93488 501.50971 1143.4579 572.86755 1398.627 607.24609 L 1398.627 607.75977 C 1399.2598 607.67586 1399.8873 607.58857 1400.5195 607.50391 C 1401.1525 607.58895 1401.7826 607.67548 1402.416 607.75977 L 1402.416 607.24609 C 1657.5852 572.86755 1870.1061 501.51166 2064.9414 395.34961 C 2206.0623 318.45554 2180.6158 187.47523 2011.4023 120.15039 C 1931.6921 88.436148 1824.055 70.330547 1711.3398 69.675781 C 1707.7081 69.654683 1704.0817 69.650884 1700.459 69.666016 z M 644.61523 410.40234 L 644.61523 651.17969 L 644.61523 657.8418 L 644.82812 657.8418 C 647.5687 700.0355 677.44331 741.34018 736.09961 773.30078 C 930.93493 879.46278 1143.4578 950.81877 1398.627 985.19727 L 1398.627 985.71289 C 1399.2598 985.62889 1399.8872 985.53978 1400.5195 985.45508 C 1401.1525 985.54008 1401.7826 985.62869 1402.416 985.71289 L 1402.416 985.19727 C 1657.5852 950.81877 1870.106 879.46278 2064.9414 773.30078 C 2123.5977 741.33998 2153.4721 700.0356 2156.2129 657.8418 L 2156.4258 657.8418 L 2156.4258 651.17969 L 2156.4258 410.40234 C 2140.9088 432.40254 2116.5792 452.97418 2083.1172 470.67188 C 1882.9522 576.53677 1664.6179 647.69436 1402.4688 681.97656 L 1402.4688 682.49023 C 1401.8181 682.40623 1401.1698 682.31742 1400.5195 682.23242 C 1399.8699 682.31742 1399.2263 682.40593 1398.5762 682.49023 L 1398.5762 681.97656 C 1136.427 647.69436 918.09074 576.53677 717.92578 470.67188 C 684.46379 452.97428 660.13229 432.40254 644.61523 410.40234 z "
       transform="matrix(0.26458333,0,0,0.26458333,-170.55444,-563.8033)"
       id="rect3737-8" />
  </g>
  <g
     inkscape:groupmode="layer"
     id="layer6"
     inkscape:label="Layer 4"
     transform="translate(170.55444,563.8033)" />
  <g
     inkscape:groupmode="layer"
     id="layer9"
     inkscape:label="Layer 6"
     transform="translate(170.55444,563.8033)" />
</svg>
