<?xml version="1.0" encoding="UTF-8" standalone="no"?>
<!-- Created with Inkscape (http://www.inkscape.org/) -->

<svg
   xmlns:dc="http://purl.org/dc/elements/1.1/"
   xmlns:cc="http://creativecommons.org/ns#"
   xmlns:rdf="http://www.w3.org/1999/02/22-rdf-syntax-ns#"
   xmlns:svg="http://www.w3.org/2000/svg"
   xmlns="http://www.w3.org/2000/svg"
   xmlns:xlink="http://www.w3.org/1999/xlink"
   xmlns:sodipodi="http://sodipodi.sourceforge.net/DTD/sodipodi-0.dtd"
   xmlns:inkscape="http://www.inkscape.org/namespaces/inkscape"
   width="1275.7446mm"
   height="490.31775mm"
   viewBox="0 0 1275.7446 490.31775"
   version="1.1"
   id="svg8"
   sodipodi:docname="button_inverted_logo_inverted.svg"
   inkscape:version="0.92.2 (unknown)">
  <defs
     id="defs2">
    <linearGradient
       inkscape:collect="always"
       id="linearGradient1477">
      <stop
         style="stop-color:#ffffff;stop-opacity:1;"
         offset="0"
         id="stop1473" />
      <stop
         style="stop-color:#ffffff;stop-opacity:0;"
         offset="1"
         id="stop1475" />
    </linearGradient>
    <linearGradient
       inkscape:collect="always"
       xlink:href="#linearGradient1477"
       id="linearGradient1479"
       x1="-233.12799"
       y1="31.384714"
       x2="1038.0167"
       y2="31.384714"
       gradientUnits="userSpaceOnUse" />
  </defs>
  <sodipodi:namedview
     id="base"
     pagecolor="#ffffff"
     bordercolor="#666666"
     borderopacity="1.0"
     inkscape:pageopacity="0.0"
     inkscape:pageshadow="2"
     inkscape:zoom="0.08"
     inkscape:cx="3043.424"
     inkscape:cy="-620.92619"
     inkscape:document-units="mm"
     inkscape:current-layer="layer2"
     showgrid="false"
     inkscape:window-width="1366"
     inkscape:window-height="718"
     inkscape:window-x="0"
     inkscape:window-y="0"
     inkscape:window-maximized="1"
     fit-margin-top="0"
     fit-margin-left="0"
     fit-margin-right="0"
     fit-margin-bottom="0" />
  <metadata
     id="metadata5">
    <rdf:RDF>
      <cc:Work
         rdf:about="">
        <dc:format>image/svg+xml</dc:format>
        <dc:type
           rdf:resource="http://purl.org/dc/dcmitype/StillImage" />
        <dc:title></dc:title>
      </cc:Work>
    </rdf:RDF>
  </metadata>
  <g
     inkscape:groupmode="layer"
     id="layer2"
     inkscape:label="Layer 7"
     transform="translate(235.42799,106.6779)">
    <g
       aria-label="BUTTON"
       style="font-style:normal;font-variant:normal;font-weight:normal;font-stretch:normal;font-size:388.05560303px;line-height:1;font-family:'Bauhaus 93';-inkscape-font-specification:'Bauhaus 93, ';letter-spacing:-10.70239162px;word-spacing:0px;fill:#ffffff;fill-opacity:1;stroke:#000000;stroke-width:4.5999999;stroke-miterlimit:4;stroke-dasharray:none;stroke-opacity:1"
       id="text880">
      <path
         d="m -233.12799,-97.935573 h 93.98221 q 83.560803,0 83.560803,65.749655 0,32.59060725 -28.611521,54.191359 41.49618,18.000626 41.49618,64.233813 0,35.432816 -24.442956,56.465126 -11.937257,10.04245 -25.579837,14.02154 -13.642579,3.97908 -36.759169,3.97908 h -14.58999 V 94.197425 h 13.07414 q 11.5583,0 16.29531,-2.842204 4.737,-3.031684 4.737,-10.421415 0,-12.505698 -19.32698,-12.505698 h -14.77947 V -0.54271212 q 21.2218,0 21.2218,-14.58998088 0,-13.4531 -19.13751,-13.4531 H -156.199 V 160.705 h -76.92899 z"
         style="font-style:normal;font-variant:normal;font-weight:normal;font-stretch:normal;font-size:388.05560303px;line-height:1;font-family:'Bauhaus 93';-inkscape-font-specification:'Bauhaus 93, ';letter-spacing:-10.70239162px;fill:#ffffff;fill-opacity:1;stroke:#000000;stroke-width:4.5999999;stroke-miterlimit:4;stroke-dasharray:none;stroke-opacity:1"
         id="path361" />
      <path
         d="M 159.19415,-97.935573 V 69.75447 q 0,44.33838 -26.52723,70.86562 -26.33776,26.52724 -70.297186,26.52724 -43.769943,0 -67.0760173,-25.76932 Q -27.822877,115.6087 -27.822877,67.291226 V -97.935573 H 49.106115 V 67.101746 q 0,23.685034 16.863744,23.685034 16.295304,0 16.295304,-23.685034 V -97.935573 Z"
         style="font-style:normal;font-variant:normal;font-weight:normal;font-stretch:normal;font-size:388.05560303px;line-height:1;font-family:'Bauhaus 93';-inkscape-font-specification:'Bauhaus 93, ';letter-spacing:-10.70239162px;fill:#ffffff;fill-opacity:1;stroke:#000000;stroke-width:4.5999999;stroke-miterlimit:4;stroke-dasharray:none;stroke-opacity:1"
         id="path363" />
      <path
         d="M 308.22364,-23.659306 V 160.705 H 231.29465 V -23.659306 h -58.92836 v -74.276267 h 194.59624 v 74.276267 z"
         style="font-style:normal;font-variant:normal;font-weight:normal;font-stretch:normal;font-size:388.05560303px;line-height:1;font-family:'Bauhaus 93';-inkscape-font-specification:'Bauhaus 93, ';letter-spacing:-10.70239162px;fill:#ffffff;fill-opacity:1;stroke:#000000;stroke-width:4.5999999;stroke-miterlimit:4;stroke-dasharray:none;stroke-opacity:1"
         id="path365" />
      <path
         d="M 497.61244,-23.659306 V 160.705 H 420.68345 V -23.659306 h -58.92837 v -74.276267 h 194.59624 v 74.276267 z"
         style="font-style:normal;font-variant:normal;font-weight:normal;font-stretch:normal;font-size:388.05560303px;line-height:1;font-family:'Bauhaus 93';-inkscape-font-specification:'Bauhaus 93, ';letter-spacing:-10.70239162px;fill:#ffffff;fill-opacity:1;stroke:#000000;stroke-width:4.5999999;stroke-miterlimit:4;stroke-dasharray:none;stroke-opacity:1"
         id="path367" />
      <path
         d="m 697.04362,-104.3779 q 54.94928,0 94.1717,39.980335 39.4119,39.980338 39.4119,95.687539 0,56.654602 -39.60138,96.255976 -39.60138,39.60138 -96.25598,39.60138 -56.27564,0 -96.0665,-39.79086 -39.79086,-39.790854 -39.79086,-96.066496 0,-56.844082 39.98034,-96.25598 40.16982,-39.411894 98.15078,-39.411894 z m -2.27376,76.171068 q -23.68503,0 -40.3593,17.432185 -16.67426,17.4321853 -16.67426,42.064621 0,24.632436 16.67426,42.064621 16.86375,17.432185 40.3593,17.432185 23.87452,0 40.3593,-17.242705 16.67426,-17.432185 16.67426,-42.254101 0,-24.821916 -16.67426,-42.064621 -16.48478,-17.432185 -40.3593,-17.432185 z"
         style="font-style:normal;font-variant:normal;font-weight:normal;font-stretch:normal;font-size:388.05560303px;line-height:1;font-family:'Bauhaus 93';-inkscape-font-specification:'Bauhaus 93, ';letter-spacing:-10.70239162px;fill:#ffffff;fill-opacity:1;stroke:#000000;stroke-width:4.5999999;stroke-miterlimit:4;stroke-dasharray:none;stroke-opacity:1"
         id="path369" />
      <path
         d="M 850.99966,160.705 V -7.1745217 q 0,-44.1489043 26.33776,-70.6761423 26.52724,-26.527236 70.48666,-26.527236 43.76995,0 66.88652,25.769315 23.3061,25.769317 23.3061,74.0867871 V 160.705 h -76.929 V -4.5217979 q 0,-23.6850341 -16.86374,-23.6850341 -16.2953,0 -16.2953,23.6850341 V 160.705 Z"
         style="font-style:normal;font-variant:normal;font-weight:normal;font-stretch:normal;font-size:388.05560303px;line-height:1;font-family:'Bauhaus 93';-inkscape-font-specification:'Bauhaus 93, ';letter-spacing:-10.70239162px;fill:#ffffff;fill-opacity:1;stroke:#000000;stroke-width:4.5999999;stroke-miterlimit:4;stroke-dasharray:none;stroke-opacity:1"
         id="path371" />
    </g>
  </g>
  <g
     inkscape:groupmode="layer"
     id="layer10"
     inkscape:label="Layer 3"
     transform="translate(405.98243,670.48297)">
    <path
       style="fill:#000000;fill-opacity:1;stroke:none;stroke-width:111.72120667;stroke-miterlimit:4;stroke-dasharray:none;stroke-opacity:1"
       d="m 1059.5605,-2130.9023 c -115.32159,0.3928 -225.79567,15.3128 -307.998,41.6601 -82.18205,-26.3406 -192.62279,-41.2589 -307.91406,-41.6582 v 0 c -3.74831,-0.015 -7.50006,-0.015 -11.25782,0 -115.744,0.5482 -226.27281,15.7103 -308.125,42.2675 -48.524866,15.7441 -85.52335,35.6478 -110.511714,57.5586 -60.903092,42.4082 -88.765008,103.1727 -80.632812,160.6192 H -67.1875 v 213.1172 a 1398.2672,540.02901 0 0 0 -577.42773,436.3691 1398.2672,540.02901 0 0 0 1398.26757,540.02931 1398.2672,540.02901 0 0 0 1398.26756,-540.02931 1398.2672,540.02901 0 0 0 -572.2324,-434.9844 v -214.5019 h -0.4844 c 3.8412,-52.9139 -22.402,-107.615 -76.4609,-147.4278 -24.2137,-27.0843 -65.782,-51.8989 -123.8828,-70.75 -81.8522,-26.5572 -192.381,-41.7192 -308.125,-42.2675 -3.7294,-0.018 -7.4538,-0.021 -11.1739,-0.01 z"
       transform="scale(0.26458333)"
       id="path5260"
       inkscape:connector-curvature="0" />
    <path
       style="fill:#ffffff;fill-opacity:1;stroke-width:0.38766503"
       d="M -17.999804,-418.27701 A 350.00033,120.79072 0 0 0 -150.00015,-323.79069 350.00033,120.79072 0 0 0 200.00054,-203.00001 350.00033,120.79072 0 0 0 550.0007,-323.79069 350.00033,120.79072 0 0 0 418.00037,-418.138 v 36.54408 1.96421 h -0.0615 c -0.0494,0.77722 -0.12965,1.55295 -0.2403,2.32752 -0.11065,0.77454 -0.25162,1.54752 -0.42376,2.3182 -0.17213,0.77068 -0.37541,1.53919 -0.60925,2.30476 -0.23387,0.7656 -0.49848,1.52845 -0.79428,2.28772 -0.29578,0.75928 -0.62283,1.5153 -0.98081,2.26706 -0.35798,0.75174 -0.747,1.49921 -1.16737,2.24224 -0.4204,0.743 -0.87194,1.48127 -1.35496,2.21433 -0.48303,0.73305 -0.99767,1.46092 -1.54358,2.18281 -0.54592,0.72189 -1.12319,1.43767 -1.7322,2.14715 -0.60902,0.70951 -1.2495,1.41253 -1.92183,2.10841 -0.67236,0.69589 -1.37663,1.38497 -2.11254,2.06603 -0.73594,0.68107 -1.5035,1.35449 -2.30323,2.01952 -0.79973,0.66503 -1.63169,1.32162 -2.49545,1.9694 -0.86378,0.64778 -1.75966,1.28632 -2.68769,1.91564 -0.92805,0.62931 -1.88791,1.24917 -2.88047,1.8588 -0.99253,0.60963 -2.01748,1.2091 -3.07475,1.79782 -3.51185,1.95551 -7.04383,3.87123 -10.59729,5.74644 -3.55346,1.87518 -7.12841,3.70996 -10.72701,5.50455 -3.59858,1.79462 -7.22086,3.54908 -10.86806,5.26276 -3.64724,1.71365 -7.31963,3.38638 -11.01898,5.0188 -3.69936,1.63246 -7.4257,3.22454 -11.18073,4.77545 -3.75502,1.55088 -7.53859,3.06091 -11.3528,4.52993 -3.81421,1.46905 -7.65885,2.89714 -11.53574,4.28398 -3.87692,1.38687 -7.7859,2.73259 -11.72902,4.03699 -3.94311,1.30437 -7.92028,2.56733 -11.93314,3.78892 -4.01283,1.22158 -8.06149,2.40136 -12.14759,3.53983 -4.08607,1.13848 -8.20952,2.23571 -12.37238,3.29076 -4.16284,1.05506 -8.36491,2.06831 -12.60803,3.03962 -4.24311,0.97131 -8.5271,1.90066 -12.854,2.78794 -4.32691,0.88726 -8.69664,1.73234 -13.11085,2.53524 -4.4142,0.80291 -8.87298,1.56329 -13.378,2.28151 -4.50503,0.71824 -9.05667,1.39403 -13.65603,2.02729 v 0.15243 c -0.18267,-0.0247 -0.3642,-0.0507 -0.54674,-0.076 -0.18236,0.0248 -0.36319,0.0511 -0.5457,0.076 v -0.15243 c -4.59936,-0.63326 -9.15048,-1.30905 -13.65551,-2.02729 -4.50503,-0.71822 -8.96379,-1.4786 -13.37801,-2.28151 -4.41422,-0.8029 -8.78392,-1.64798 -13.11084,-2.53524 -4.32692,-0.88728 -8.61139,-1.81663 -12.85453,-2.78794 -4.24314,-0.97131 -8.44515,-1.98456 -12.60802,-3.03962 -4.16287,-1.05505 -8.28679,-2.15228 -12.37291,-3.29076 -4.08611,-1.13847 -8.13471,-2.31825 -12.14759,-3.53983 -4.01287,-1.22159 -7.98998,-2.48455 -11.933129,-3.78892 -3.943147,-1.3044 -7.852074,-2.65012 -11.729012,-4.03699 -3.876935,-1.38684 -7.721499,-2.81493 -11.535738,-4.28398 -3.814243,-1.46902 -7.598267,-2.97905 -11.353325,-4.52993 -3.755057,-1.55091 -7.481334,-3.14299 -11.180723,-4.77545 -3.699389,-1.63242 -7.371743,-3.30515 -11.018978,-5.0188 -3.647234,-1.71368 -7.269484,-3.46814 -10.86808,-5.26276 -3.598596,-1.79459 -7.173534,-3.62937 -10.727005,-5.50455 -3.55347,-1.87521 -7.085436,-3.79093 -10.5972958,-5.74644 -1.0572655,-0.5887 -2.0822173,-1.18819 -3.0747508,-1.79782 -0.9925335,-0.60963 -1.9524134,-1.22949 -2.8804471,-1.8588 -0.9280338,-0.62932 -1.82392785,-1.26786 -2.68769391,-1.91564 -0.86376609,-0.64778 -1.69572699,-1.30437 -2.49545729,-1.9694 -0.7997303,-0.66503 -1.5672942,-1.33845 -2.303221,-2.01952 -0.7359266,-0.68106 -1.4401796,-1.37014 -2.1125344,-2.06603 -0.672355,-0.69588 -1.3128333,-1.3989 -1.9218484,-2.10841 -0.6090153,-0.70948 -1.1862883,-1.42526 -1.7321953,-2.14715 -0.545908,-0.72189 -1.060545,-1.44976 -1.543577,-2.18281 -0.483032,-0.73306 -0.934569,-1.47133 -1.354958,-2.21433 -0.420387,-0.74303 -0.809395,-1.49101 -1.167371,-2.24277 -0.357977,-0.75176 -0.685023,-1.50725 -0.98082,-2.26653 -0.295797,-0.75927 -0.560418,-1.52212 -0.794267,-2.28772 -0.23385,-0.76557 -0.436616,-1.53408 -0.608749,-2.30476 -0.172134,-0.77068 -0.313614,-1.54366 -0.424264,-2.3182 -0.11065,-0.77457 -0.190898,-1.55033 -0.240296,-2.32752 h -0.06098 v -1.96421 z"
       id="path5191"
       inkscape:connector-curvature="0" />
  </g>
  <g
     inkscape:label="Layer 1"
     inkscape:groupmode="layer"
     id="layer1"
     transform="translate(405.98243,670.48297)">
    <flowRoot
       xml:space="preserve"
       id="flowRoot870"
       style="font-style:normal;font-weight:normal;font-size:40px;line-height:1.25;font-family:sans-serif;letter-spacing:0px;word-spacing:0px;fill:#000000;fill-opacity:1;stroke:none"
       transform="matrix(0.26458333,0,0,0.26458333,-170.55444,-563.80507)"><flowRegion
         id="flowRegion872"><rect
           id="rect874"
           width="1528.8887"
           height="618.78912"
           x="-440.625"
           y="-618.77271" /></flowRegion><flowPara
         id="flowPara876" /></flowRoot>  </g>
  <g
     inkscape:groupmode="layer"
     id="layer4"
     inkscape:label="Layer 2"
     transform="translate(405.98243,670.48297)" />
  <g
     inkscape:groupmode="layer"
     id="layer8"
     inkscape:label="Layer 5"
     transform="translate(405.98243,670.48297)">
    <path
       style="fill:#aa0088;fill-opacity:1;stroke-width:0.5360387"
       d="m 1055.8438,-2061.2441 c -112.30391,0.469 -219.88825,18.2864 -299.9395,49.75 -80.03146,-31.4556 -187.57914,-49.2712 -299.85352,-49.7481 -3.65019,-0.015 -7.3055,-0.015 -10.96484,0.01 -112.71524,0.6546 -220.35229,18.7604 -300.0625,50.4746 -169.213412,67.3249 -194.659957,198.3032 -53.539065,275.1973 194.835275,106.1621 407.358245,177.5199 662.527345,211.8984 v 0.5137 c 0.63281,-0.084 1.2603,-0.1712 1.89258,-0.2558 0.63292,0.085 1.26311,0.1715 1.89648,0.2558 v -0.5137 c 255.16922,-34.3785 467.69012,-105.7344 662.52542,-211.8964 141.1208,-76.8941 115.6743,-207.8744 -53.5391,-275.1993 -79.7102,-31.7142 -187.3473,-49.8198 -300.0625,-50.4746 -3.6318,-0.021 -7.2581,-0.025 -10.8808,-0.01 z M 0,-1720.5078 v 240.7773 6.6621 h 0.21289062 c 2.74057328,42.1937 32.61518338,83.4984 91.27148438,115.459 194.835325,106.162 407.358205,177.518 662.527345,211.8965 v 0.5156 c 0.63281,-0.084 1.26026,-0.1731 1.89258,-0.2578 0.63299,0.085 1.26311,0.1736 1.89648,0.2578 v -0.5156 c 255.16922,-34.3785 467.69002,-105.7345 662.52542,-211.8965 58.6563,-31.9608 88.5307,-73.2652 91.2715,-115.459 h 0.2128 v -6.6621 -240.7773 c -15.517,22.0002 -39.8465,42.5718 -73.3085,60.2695 -200.165,105.8649 -418.4993,177.0225 -680.64848,211.3047 v 0.5137 c -0.65069,-0.084 -1.29892,-0.1728 -1.94922,-0.2578 -0.64963,0.085 -1.29325,0.1735 -1.94336,0.2578 v -0.5137 C 491.81177,-1483.2158 273.47551,-1554.3734 73.310547,-1660.2383 39.84856,-1677.9359 15.517055,-1698.5076 0,-1720.5078 Z"
       transform="scale(0.26458333)"
       id="rect3737-8"
       inkscape:connector-curvature="0" />
  </g>
  <g
     inkscape:groupmode="layer"
     id="layer6"
     inkscape:label="Layer 4"
     transform="translate(405.98243,670.48297)" />
  <g
     inkscape:groupmode="layer"
     id="layer9"
     inkscape:label="Layer 6"
     transform="translate(405.98243,670.48297)" />
</svg>
